<svg width="48" height="48" viewBox="0 0 48 48" fill="none" xmlns="http://www.w3.org/2000/svg">
<g clip-path="url(#clip0_71_2175)">
<path d="M9.81934 37.1534H21.1639L24 33.6082L26.8361 37.1534H38.1807L24 17.2999L9.81934 37.1534Z" fill="#B2B2B2"/>
<path d="M24 7.15424C25.0764 7.15424 26.0857 7.67473 26.7114 8.55069L43.3771 31.8834C44.1028 32.8994 44.2023 34.2367 43.631 35.3469C43.0596 36.4568 41.914 37.1535 40.6657 37.1535H27.3331C26.3205 37.1535 25.3616 36.6942 24.7291 35.9035L24 34.992L23.2708 35.9035C22.6383 36.6942 21.6794 37.1535 20.6668 37.1535H7.33426C6.08588 37.1535 4.94033 36.4568 4.36894 35.3469C3.79762 34.2367 3.89712 32.8994 4.62283 31.8834L21.2885 8.55069L21.5392 8.2382C22.1664 7.55184 23.0581 7.15424 24 7.15424ZM7.33426 33.8202H20.6668L24 29.6536L27.3331 33.8202H40.6657L24 10.4875L7.33426 33.8202Z" fill="white"/>
</g>
<defs>
<clipPath id="clip0_71_2175">
<rect width="48" height="48" fill="white"/>
</clipPath>
</defs>
</svg>
